<svg xmlns="http://www.w3.org/2000/svg" width="190" height="101" viewBox="0 0 190 101">
  <g id="Grupo_1118492" data-name="Grupo 1118492" transform="translate(-1230.051 -388)">
    <rect id="Rectángulo_409010" data-name="Rectángulo 409010" width="190" height="101" rx="10" transform="translate(1230.051 388)" fill="#b17196"/>
    <g id="Grupo_1117911" data-name="Grupo 1117911" transform="translate(582 -4)">
      <g id="Grupo_1117910" data-name="Grupo 1117910" transform="translate(705.051 404)">
        <g id="Grupo_1098797" data-name="Grupo 1098797">
          <g id="Grupo_1098742" data-name="Grupo 1098742" transform="translate(0 0)">
            <rect id="Rectángulo_400898" data-name="Rectángulo 400898" width="77" height="77" rx="38.5" transform="translate(0 0)" fill="#ffa3d9" opacity="0.859"/>
            <rect id="Rectángulo_400907" data-name="Rectángulo 400907" width="77" height="77" rx="38.5" transform="translate(0 0)" fill="none"/>
          </g>
        </g>
      </g>
      <g id="processor_406673" transform="translate(720.402 418.653)">
        <g id="Grupo_1110361" data-name="Grupo 1110361" transform="translate(0.794 0.011)">
          <path id="Trazado_898474" data-name="Trazado 898474" d="M77.792,202.127h-2.35a.783.783,0,1,1,0-1.567h2.35a.783.783,0,1,1,0,1.567Z" transform="translate(-68.39 -181.757)" fill="#ffe100"/>
          <path id="Trazado_898475" data-name="Trazado 898475" d="M77.792,302.848h-2.35a.783.783,0,1,1,0-1.567h2.35a.783.783,0,1,1,0,1.567Z" transform="translate(-68.39 -273.077)" fill="#ffe100"/>
          <path id="Trazado_898476" data-name="Trazado 898476" d="M77.792,269.274h-2.35a.783.783,0,0,1,0-1.567h2.35a.783.783,0,0,1,0,1.567Z" transform="translate(-68.39 -242.637)" fill="#ffe100"/>
          <path id="Trazado_898477" data-name="Trazado 898477" d="M77.792,235.7h-2.35a.783.783,0,1,1,0-1.567h2.35a.783.783,0,1,1,0,1.567Z" transform="translate(-68.39 -212.197)" fill="#ffe100"/>
          <path id="Trazado_898478" data-name="Trazado 898478" d="M405.136,202.127h-2.35a.783.783,0,0,1,0-1.567h2.35a.783.783,0,1,1,0,1.567Z" transform="translate(-365.18 -181.757)" fill="#ffe100"/>
          <path id="Trazado_898479" data-name="Trazado 898479" d="M405.136,302.848h-2.35a.783.783,0,1,1,0-1.567h2.35a.783.783,0,1,1,0,1.567Z" transform="translate(-365.18 -273.077)" fill="#ffe100"/>
          <path id="Trazado_898480" data-name="Trazado 898480" d="M405.136,269.274h-2.35a.783.783,0,0,1,0-1.567h2.35a.783.783,0,1,1,0,1.567Z" transform="translate(-365.18 -242.637)" fill="#ffe100"/>
          <path id="Trazado_898481" data-name="Trazado 898481" d="M405.136,235.7h-2.35a.783.783,0,0,1,0-1.567h2.35a.783.783,0,1,1,0,1.567Z" transform="translate(-365.18 -212.197)" fill="#ffe100"/>
          <path id="Trazado_898482" data-name="Trazado 898482" d="M302.064,78.575a.74.74,0,0,1-.783-.783v-2.35a.783.783,0,1,1,1.567,0v2.35A.74.74,0,0,1,302.064,78.575Z" transform="translate(-273.861 -67.607)" fill="#ffe100"/>
          <path id="Trazado_898483" data-name="Trazado 898483" d="M201.342,78.575a.74.74,0,0,1-.783-.783v-2.35a.783.783,0,1,1,1.567,0v2.35A.74.74,0,0,1,201.342,78.575Z" transform="translate(-182.54 -67.607)" fill="#ffe100"/>
          <path id="Trazado_898484" data-name="Trazado 898484" d="M234.916,78.575a.74.74,0,0,1-.783-.783v-2.35a.783.783,0,1,1,1.567,0v2.35A.74.74,0,0,1,234.916,78.575Z" transform="translate(-212.98 -67.607)" fill="#ffe100"/>
          <path id="Trazado_898485" data-name="Trazado 898485" d="M268.49,78.575a.74.74,0,0,1-.783-.783v-2.35a.783.783,0,0,1,1.567,0v2.35A.74.74,0,0,1,268.49,78.575Z" transform="translate(-243.42 -67.607)" fill="#ffe100"/>
          <path id="Trazado_898486" data-name="Trazado 898486" d="M302.064,405.92a.74.74,0,0,1-.783-.783v-2.35a.783.783,0,1,1,1.567,0v2.35A.74.74,0,0,1,302.064,405.92Z" transform="translate(-273.861 -364.398)" fill="#ffe100"/>
          <path id="Trazado_898487" data-name="Trazado 898487" d="M201.342,405.92a.74.74,0,0,1-.783-.783v-2.35a.783.783,0,1,1,1.567,0v2.35A.74.74,0,0,1,201.342,405.92Z" transform="translate(-182.54 -364.398)" fill="#ffe100"/>
          <path id="Trazado_898488" data-name="Trazado 898488" d="M234.916,405.92a.74.74,0,0,1-.783-.783v-2.35a.783.783,0,1,1,1.567,0v2.35A.74.74,0,0,1,234.916,405.92Z" transform="translate(-212.98 -364.398)" fill="#ffe100"/>
          <path id="Trazado_898489" data-name="Trazado 898489" d="M268.49,405.92a.74.74,0,0,1-.783-.783v-2.35a.783.783,0,1,1,1.567,0v2.35A.74.74,0,0,1,268.49,405.92Z" transform="translate(-243.42 -364.398)" fill="#ffe100"/>
          <path id="Trazado_898490" data-name="Trazado 898490" d="M11.427,202.127H8.293a.783.783,0,0,1,0-1.567h3.134a.783.783,0,0,1,0,1.567Z" transform="translate(-7.51 -181.757)" fill="#ffe100"/>
          <path id="Trazado_898491" data-name="Trazado 898491" d="M11.427,235.7H8.293a.783.783,0,0,1,0-1.567h3.134a.783.783,0,0,1,0,1.567Z" transform="translate(-7.51 -212.197)" fill="#ffe100"/>
          <path id="Trazado_898492" data-name="Trazado 898492" d="M11.427,269.274H8.293a.783.783,0,0,1,0-1.567h3.134a.783.783,0,0,1,0,1.567Z" transform="translate(-7.51 -242.637)" fill="#ffe100"/>
          <path id="Trazado_898493" data-name="Trazado 898493" d="M11.427,302.848H8.293a.783.783,0,1,1,0-1.567h3.134a.783.783,0,1,1,0,1.567Z" transform="translate(-7.51 -273.077)" fill="#ffe100"/>
          <path id="Trazado_898494" data-name="Trazado 898494" d="M464.673,202.127h-3.134a.783.783,0,0,1,0-1.567h3.134a.783.783,0,0,1,0,1.567Z" transform="translate(-418.45 -181.757)" fill="#ffe100"/>
          <path id="Trazado_898495" data-name="Trazado 898495" d="M464.673,235.7h-3.134a.783.783,0,0,1,0-1.567h3.134a.783.783,0,0,1,0,1.567Z" transform="translate(-418.45 -212.197)" fill="#ffe100"/>
          <path id="Trazado_898496" data-name="Trazado 898496" d="M464.673,269.274h-3.134a.783.783,0,0,1,0-1.567h3.134a.783.783,0,0,1,0,1.567Z" transform="translate(-418.45 -242.637)" fill="#ffe100"/>
          <path id="Trazado_898497" data-name="Trazado 898497" d="M464.673,302.848h-3.134a.783.783,0,1,1,0-1.567h3.134a.783.783,0,0,1,0,1.567Z" transform="translate(-418.45 -273.077)" fill="#ffe100"/>
          <path id="Trazado_898498" data-name="Trazado 898498" d="M201.342,465.457a.74.74,0,0,1-.783-.783v-3.134a.783.783,0,0,1,1.567,0v3.134A.74.74,0,0,1,201.342,465.457Z" transform="translate(-182.54 -417.667)" fill="#ffe100"/>
          <path id="Trazado_898499" data-name="Trazado 898499" d="M234.916,465.457a.74.74,0,0,1-.783-.783v-3.134a.783.783,0,0,1,1.567,0v3.134A.74.74,0,0,1,234.916,465.457Z" transform="translate(-212.98 -417.667)" fill="#ffe100"/>
          <path id="Trazado_898500" data-name="Trazado 898500" d="M268.49,465.457a.74.74,0,0,1-.783-.783v-3.134a.783.783,0,0,1,1.567,0v3.134A.74.74,0,0,1,268.49,465.457Z" transform="translate(-243.42 -417.667)" fill="#ffe100"/>
          <path id="Trazado_898501" data-name="Trazado 898501" d="M302.064,465.457a.74.74,0,0,1-.783-.783v-3.134a.783.783,0,1,1,1.567,0v3.134A.74.74,0,0,1,302.064,465.457Z" transform="translate(-273.861 -417.667)" fill="#ffe100"/>
          <path id="Trazado_898502" data-name="Trazado 898502" d="M201.342,12.211a.74.74,0,0,1-.783-.783V8.293a.783.783,0,0,1,1.567,0v3.134A.74.74,0,0,1,201.342,12.211Z" transform="translate(-182.54 -6.726)" fill="#ffe100"/>
          <path id="Trazado_898503" data-name="Trazado 898503" d="M234.916,12.211a.74.74,0,0,1-.783-.783V8.293a.783.783,0,0,1,1.567,0v3.134A.74.74,0,0,1,234.916,12.211Z" transform="translate(-212.98 -6.726)" fill="#ffe100"/>
          <path id="Trazado_898504" data-name="Trazado 898504" d="M268.49,12.211a.74.74,0,0,1-.783-.783V8.293a.783.783,0,0,1,1.567,0v3.134A.74.74,0,0,1,268.49,12.211Z" transform="translate(-243.42 -6.726)" fill="#ffe100"/>
          <path id="Trazado_898505" data-name="Trazado 898505" d="M302.064,12.211a.74.74,0,0,1-.783-.783V8.293a.783.783,0,1,1,1.567,0v3.134A.74.74,0,0,1,302.064,12.211Z" transform="translate(-273.861 -6.726)" fill="#ffe100"/>
          <path id="Trazado_898506" data-name="Trazado 898506" d="M20.045,11.651a.846.846,0,0,1-.548-.235L7.745.448a.757.757,0,0,1,0-1.1.757.757,0,0,1,1.1,0L20.594,10.319a.757.757,0,0,1,0,1.1A.711.711,0,0,1,20.045,11.651Z" transform="translate(-7.51 0.884)" fill="#ffe100"/>
          <path id="Trazado_898507" data-name="Trazado 898507" d="M377.951,27.216a.711.711,0,0,1-.548-.235.762.762,0,0,1,.078-1.1l10.185-9.4a.778.778,0,0,1,1.018,1.175L378.5,27.06A1.453,1.453,0,0,1,377.951,27.216Z" transform="translate(-342.696 -14.681)" fill="#ffe100"/>
          <path id="Trazado_898508" data-name="Trazado 898508" d="M380.075,380.074a.846.846,0,0,1-.548-.235l-10.968-10.185a.778.778,0,0,1,1.018-1.175l10.968,10.185a.839.839,0,0,1,.078,1.1A.591.591,0,0,1,380.075,380.074Z" transform="translate(-334.635 -333.852)" fill="#ffe100"/>
          <path id="Trazado_898509" data-name="Trazado 898509" d="M17.033,396.528a.711.711,0,0,1-.548-.235.762.762,0,0,1,.078-1.1l10.185-9.4a.778.778,0,1,1,1.019,1.175l-10.185,9.4A1.453,1.453,0,0,1,17.033,396.528Z" transform="translate(-15.466 -349.522)" fill="#ffe100"/>
        </g>
        <g id="Grupo_1110362" data-name="Grupo 1110362" transform="translate(9.412 9.412)">
          <path id="Trazado_898510" data-name="Trazado 898510" d="M183.772,102.972h12.535V99.838H183.772Z" transform="translate(-175.938 -99.838)" fill="#fdcc00"/>
          <path id="Trazado_898511" data-name="Trazado 898511" d="M183.772,371.562h12.535v-3.134H183.772Z" transform="translate(-175.938 -343.358)" fill="#fdcc00"/>
          <path id="Trazado_898512" data-name="Trazado 898512" d="M368.428,196.307h3.134V183.772h-3.134Z" transform="translate(-343.358 -175.938)" fill="#fdcc00"/>
          <path id="Trazado_898513" data-name="Trazado 898513" d="M99.838,196.307h3.134V183.772H99.838Z" transform="translate(-99.838 -175.938)" fill="#fdcc00"/>
        </g>
        <path id="Trazado_898514" data-name="Trazado 898514" d="M133.411,152.684V136.075a2.642,2.642,0,0,1,2.664-2.664h16.687a2.642,2.642,0,0,1,2.664,2.664v16.687a2.642,2.642,0,0,1-2.664,2.664H136.075a2.76,2.76,0,0,1-2.664-2.742" transform="translate(-120.865 -120.865)" fill="#ffe100"/>
        <path id="Trazado_898515" data-name="Trazado 898515" d="M182.656,174.036l-.94-.157a1.914,1.914,0,0,1-1.175-3.055l.627-.783-1.254-1.254-.783.548A1.92,1.92,0,0,1,176.153,168l-.313-1.018h-1.8l-.235,1.254a1.937,1.937,0,0,1-2.977,1.254l-1.018-.705-1.254,1.254.627.783a1.914,1.914,0,0,1-1.175,3.055l-1.018.157v1.8l1.018.157a1.933,1.933,0,0,1,1.332,2.977l-.548.783,1.254,1.253.783-.627a1.914,1.914,0,0,1,3.055,1.175l.157,1.1h1.8l.078-.705a1.94,1.94,0,0,1,3.055-1.254l.548.392,1.253-1.253-.548-.783a1.92,1.92,0,0,1,1.332-2.977l1.018-.157v-1.88h.078Z" transform="translate(-151.307 -151.305)" fill="#63d3fd"/>
        <path id="Trazado_898516" data-name="Trazado 898516" d="M230.441,228.089a2.35,2.35,0,1,1-2.35-2.35,2.308,2.308,0,0,1,2.35,2.35" transform="translate(-204.576 -204.575)" fill="#ffe100"/>
        <path id="Trazado_898517" data-name="Trazado 898517" d="M145.074,148.521H128.465a3.478,3.478,0,0,1-3.447-3.447V128.465a3.478,3.478,0,0,1,3.447-3.447h16.687a3.478,3.478,0,0,1,3.447,3.447v16.687A3.589,3.589,0,0,1,145.074,148.521Zm-16.609-21.936a1.906,1.906,0,0,0-1.88,1.88v16.687a1.906,1.906,0,0,0,1.88,1.88h16.687a1.906,1.906,0,0,0,1.88-1.88V128.465a1.906,1.906,0,0,0-1.88-1.88Z" transform="translate(-113.256 -113.256)"/>
        <path id="Trazado_898518" data-name="Trazado 898518" d="M189.48,96.145h-14.1v-4.7h14.1Zm-12.535-1.567h10.968V93.011H176.945Z" transform="translate(-158.915 -82.815)"/>
        <path id="Trazado_898519" data-name="Trazado 898519" d="M189.48,364.735h-14.1v-4.7h14.1Zm-12.535-1.567h10.968V361.6H176.945Z" transform="translate(-158.915 -326.335)"/>
        <path id="Trazado_898520" data-name="Trazado 898520" d="M364.735,189.48h-4.7v-14.1h4.7Zm-3.134-1.567h1.567V176.945H361.6Z" transform="translate(-326.335 -158.915)"/>
        <path id="Trazado_898521" data-name="Trazado 898521" d="M96.145,189.48h-4.7v-14.1h4.7Zm-3.134-1.567h1.567V176.945H93.011Z" transform="translate(-82.815 -158.915)"/>
        <path id="Trazado_898522" data-name="Trazado 898522" d="M69.4,193.733h-2.35a.783.783,0,1,1,0-1.567H69.4a.783.783,0,1,1,0,1.567Z" transform="translate(-59.987 -174.136)"/>
        <path id="Trazado_898523" data-name="Trazado 898523" d="M69.4,294.455h-2.35a.783.783,0,0,1,0-1.567H69.4a.783.783,0,0,1,0,1.567Z" transform="translate(-59.987 -265.457)"/>
        <path id="Trazado_898524" data-name="Trazado 898524" d="M69.4,260.881h-2.35a.783.783,0,1,1,0-1.567H69.4a.783.783,0,1,1,0,1.567Z" transform="translate(-59.987 -235.016)"/>
        <path id="Trazado_898525" data-name="Trazado 898525" d="M69.4,227.307h-2.35a.783.783,0,1,1,0-1.567H69.4a.783.783,0,1,1,0,1.567Z" transform="translate(-59.987 -204.576)"/>
        <path id="Trazado_898526" data-name="Trazado 898526" d="M396.743,193.733h-2.35a.783.783,0,1,1,0-1.567h2.35a.783.783,0,0,1,0,1.567Z" transform="translate(-356.776 -174.136)"/>
        <path id="Trazado_898527" data-name="Trazado 898527" d="M396.743,294.455h-2.35a.783.783,0,0,1,0-1.567h2.35a.783.783,0,0,1,0,1.567Z" transform="translate(-356.776 -265.457)"/>
        <path id="Trazado_898528" data-name="Trazado 898528" d="M396.743,260.881h-2.35a.783.783,0,1,1,0-1.567h2.35a.783.783,0,0,1,0,1.567Z" transform="translate(-356.776 -235.016)"/>
        <path id="Trazado_898529" data-name="Trazado 898529" d="M396.743,227.307h-2.35a.783.783,0,1,1,0-1.567h2.35a.783.783,0,0,1,0,1.567Z" transform="translate(-356.776 -204.576)"/>
        <path id="Trazado_898530" data-name="Trazado 898530" d="M293.67,70.182a.74.74,0,0,1-.783-.783v-2.35a.783.783,0,0,1,1.567,0V69.4A.74.74,0,0,1,293.67,70.182Z" transform="translate(-265.456 -59.987)"/>
        <path id="Trazado_898531" data-name="Trazado 898531" d="M192.949,70.182a.74.74,0,0,1-.783-.783v-2.35a.783.783,0,1,1,1.567,0V69.4A.74.74,0,0,1,192.949,70.182Z" transform="translate(-174.136 -59.987)"/>
        <path id="Trazado_898532" data-name="Trazado 898532" d="M226.523,70.182a.74.74,0,0,1-.783-.783v-2.35a.783.783,0,1,1,1.567,0V69.4A.74.74,0,0,1,226.523,70.182Z" transform="translate(-204.576 -59.987)"/>
        <path id="Trazado_898533" data-name="Trazado 898533" d="M260.1,70.182a.74.74,0,0,1-.783-.783v-2.35a.783.783,0,1,1,1.567,0V69.4A.74.74,0,0,1,260.1,70.182Z" transform="translate(-235.016 -59.987)"/>
        <path id="Trazado_898534" data-name="Trazado 898534" d="M293.67,397.526a.74.74,0,0,1-.783-.783v-2.35a.783.783,0,0,1,1.567,0v2.35A.74.74,0,0,1,293.67,397.526Z" transform="translate(-265.456 -356.776)"/>
        <path id="Trazado_898535" data-name="Trazado 898535" d="M192.949,397.526a.74.74,0,0,1-.783-.783v-2.35a.783.783,0,0,1,1.567,0v2.35A.74.74,0,0,1,192.949,397.526Z" transform="translate(-174.136 -356.776)"/>
        <path id="Trazado_898536" data-name="Trazado 898536" d="M226.523,397.526a.74.74,0,0,1-.783-.783v-2.35a.783.783,0,1,1,1.567,0v2.35A.74.74,0,0,1,226.523,397.526Z" transform="translate(-204.576 -356.776)"/>
        <path id="Trazado_898537" data-name="Trazado 898537" d="M260.1,397.526a.74.74,0,0,1-.783-.783v-2.35a.783.783,0,1,1,1.567,0v2.35A.74.74,0,0,1,260.1,397.526Z" transform="translate(-235.016 -356.776)"/>
        <path id="Trazado_898538" data-name="Trazado 898538" d="M3.034,193.733H-.1a.74.74,0,0,1-.783-.783.74.74,0,0,1,.783-.783H3.034a.783.783,0,1,1,0,1.567Z" transform="translate(0.894 -174.136)"/>
        <path id="Trazado_898539" data-name="Trazado 898539" d="M3.034,227.307H-.1a.74.74,0,0,1-.783-.783A.74.74,0,0,1-.1,225.74H3.034a.783.783,0,1,1,0,1.567Z" transform="translate(0.894 -204.576)"/>
        <path id="Trazado_898540" data-name="Trazado 898540" d="M3.034,260.881H-.1a.74.74,0,0,1-.783-.783.74.74,0,0,1,.783-.783H3.034a.783.783,0,1,1,0,1.567Z" transform="translate(0.894 -235.016)"/>
        <path id="Trazado_898541" data-name="Trazado 898541" d="M3.034,294.455H-.1a.74.74,0,0,1-.783-.783.74.74,0,0,1,.783-.783H3.034a.783.783,0,1,1,0,1.567Z" transform="translate(0.894 -265.457)"/>
        <path id="Trazado_898542" data-name="Trazado 898542" d="M456.279,193.733h-3.134a.783.783,0,1,1,0-1.567h3.134a.783.783,0,1,1,0,1.567Z" transform="translate(-410.045 -174.136)"/>
        <path id="Trazado_898543" data-name="Trazado 898543" d="M456.279,227.307h-3.134a.783.783,0,1,1,0-1.567h3.134a.783.783,0,1,1,0,1.567Z" transform="translate(-410.045 -204.576)"/>
        <path id="Trazado_898544" data-name="Trazado 898544" d="M456.279,260.881h-3.134a.783.783,0,1,1,0-1.567h3.134a.783.783,0,1,1,0,1.567Z" transform="translate(-410.045 -235.016)"/>
        <path id="Trazado_898545" data-name="Trazado 898545" d="M456.279,294.455h-3.134a.783.783,0,1,1,0-1.567h3.134a.783.783,0,1,1,0,1.567Z" transform="translate(-410.045 -265.457)"/>
        <path id="Trazado_898546" data-name="Trazado 898546" d="M192.949,457.064a.74.74,0,0,1-.783-.783v-3.134a.783.783,0,1,1,1.567,0v3.134A.74.74,0,0,1,192.949,457.064Z" transform="translate(-174.136 -410.046)"/>
        <path id="Trazado_898547" data-name="Trazado 898547" d="M226.523,457.064a.74.74,0,0,1-.783-.783v-3.134a.783.783,0,1,1,1.567,0v3.134A.74.74,0,0,1,226.523,457.064Z" transform="translate(-204.576 -410.046)"/>
        <path id="Trazado_898548" data-name="Trazado 898548" d="M260.1,457.064a.74.74,0,0,1-.783-.783v-3.134a.783.783,0,1,1,1.567,0v3.134A.74.74,0,0,1,260.1,457.064Z" transform="translate(-235.016 -410.046)"/>
        <path id="Trazado_898549" data-name="Trazado 898549" d="M293.67,457.064a.74.74,0,0,1-.783-.783v-3.134a.783.783,0,1,1,1.567,0v3.134A.74.74,0,0,1,293.67,457.064Z" transform="translate(-265.456 -410.046)"/>
        <path id="Trazado_898550" data-name="Trazado 898550" d="M192.949,3.818a.74.74,0,0,1-.783-.783V-.1a.74.74,0,0,1,.783-.783.74.74,0,0,1,.783.783V3.034A.74.74,0,0,1,192.949,3.818Z" transform="translate(-174.136 0.894)"/>
        <path id="Trazado_898551" data-name="Trazado 898551" d="M226.523,3.818a.74.74,0,0,1-.783-.783V-.1a.74.74,0,0,1,.783-.783.74.74,0,0,1,.783.783V3.034A.74.74,0,0,1,226.523,3.818Z" transform="translate(-204.576 0.894)"/>
        <path id="Trazado_898552" data-name="Trazado 898552" d="M260.1,3.818a.74.74,0,0,1-.783-.783V-.1a.74.74,0,0,1,.783-.783.74.74,0,0,1,.783.783V3.034A.74.74,0,0,1,260.1,3.818Z" transform="translate(-235.016 0.894)"/>
        <path id="Trazado_898553" data-name="Trazado 898553" d="M293.67,3.818a.74.74,0,0,1-.783-.783V-.1a.74.74,0,0,1,.783-.783.74.74,0,0,1,.783.783V3.034A.74.74,0,0,1,293.67,3.818Z" transform="translate(-265.456 0.894)"/>
        <path id="Trazado_898554" data-name="Trazado 898554" d="M10.763,10.763a.846.846,0,0,1-.548-.235L-.754.343a.839.839,0,0,1-.078-1.1.839.839,0,0,1,1.1-.078L11.233,9.352a.839.839,0,0,1,.078,1.1A.591.591,0,0,1,10.763,10.763Z" transform="translate(1 1)"/>
        <path id="Trazado_898555" data-name="Trazado 898555" d="M369.3,10.955a.747.747,0,0,1-.47-1.332L379.8-.562a.7.7,0,0,1,1.1.078.7.7,0,0,1-.078,1.1L369.847,10.8A1.453,1.453,0,0,1,369.3,10.955Z" transform="translate(-334.033 0.807)"/>
        <path id="Trazado_898556" data-name="Trazado 898556" d="M380.075,388.468a.846.846,0,0,1-.548-.235l-10.968-10.185a.778.778,0,0,1,1.018-1.175l10.968,10.185a.839.839,0,0,1,.078,1.1A.592.592,0,0,1,380.075,388.468Z" transform="translate(-333.841 -341.45)"/>
        <path id="Trazado_898557" data-name="Trazado 898557" d="M-.012,388.66a.711.711,0,0,1-.548-.235.7.7,0,0,1,.078-1.1l10.968-10.185a.778.778,0,1,1,1.019,1.175L.536,388.5A1.453,1.453,0,0,1-.012,388.66Z" transform="translate(0.807 -341.643)"/>
        <path id="Trazado_898558" data-name="Trazado 898558" d="M168.228,176.59h-1.8a.763.763,0,0,1-.783-.627l-.157-.94a1.165,1.165,0,0,0-1.175-.94,1.263,1.263,0,0,0-.705.235l-.783.627a.738.738,0,0,1-1.018-.078l-1.254-1.254a.821.821,0,0,1-.078-1.018l.548-.783a1.09,1.09,0,0,0,.078-1.1,1.129,1.129,0,0,0-.862-.705l-1.018-.157a.763.763,0,0,1-.627-.783v-1.88a.763.763,0,0,1,.627-.783l.94-.157a1.129,1.129,0,0,0,.862-.705,1.1,1.1,0,0,0-.157-1.1l-.627-.783a.829.829,0,0,1,.078-1.018l1.254-1.254a.821.821,0,0,1,1.018-.078l1.018.705a1.041,1.041,0,0,0,.627.235,1.226,1.226,0,0,0,1.175-.94l.235-1.254a.763.763,0,0,1,.783-.627h1.8a.843.843,0,0,1,.783.627l.157,1.018a1.177,1.177,0,0,0,1.175,1.018.89.89,0,0,0,.627-.235l.783-.548a.83.83,0,0,1,1.018.078l1.254,1.254a.821.821,0,0,1,.078,1.018l-.627.783a1.1,1.1,0,0,0-.157,1.1,1.129,1.129,0,0,0,.862.705l.94.157a.763.763,0,0,1,.627.783v1.8a.843.843,0,0,1-.627.783l-1.018.157a1.129,1.129,0,0,0-.862.705,1.09,1.09,0,0,0,.078,1.1l.548.783a.829.829,0,0,1-.078,1.018l-1.253,1.254a.732.732,0,0,1-1.018.078l-.548-.392a1.264,1.264,0,0,0-.705-.235,1.221,1.221,0,0,0-1.175,1.018l-.078.705A.774.774,0,0,1,168.228,176.59Zm-1.1-1.567h.47a2.692,2.692,0,0,1,2.664-2.272,2.4,2.4,0,0,1,1.567.548h0l.313-.313-.157-.235a2.558,2.558,0,0,1-.235-2.585,2.6,2.6,0,0,1,2.115-1.567l.313-.078v-.47l-.313-.078a2.726,2.726,0,0,1-2.037-1.645,2.553,2.553,0,0,1,.313-2.585l.157-.235-.313-.313-.235.157a2.769,2.769,0,0,1-1.489.47,2.636,2.636,0,0,1-2.664-2.35v-.548h-.47l-.078.548a2.76,2.76,0,0,1-2.664,2.194,2.411,2.411,0,0,1-1.489-.47l-.47-.313-.47.392.157.235a2.575,2.575,0,0,1,.313,2.585,2.6,2.6,0,0,1-2.037,1.645l-.235.157v.47l.313.078a2.754,2.754,0,0,1,2.115,1.567,2.558,2.558,0,0,1-.235,2.585l-.157.235.313.313.235-.157a2.916,2.916,0,0,1,1.567-.548,2.7,2.7,0,0,1,2.664,2.194Z" transform="translate(-143.696 -144.458)"/>
        <path id="Trazado_898559" data-name="Trazado 898559" d="M220.479,223.613a3.134,3.134,0,1,1,3.134-3.134A3.143,3.143,0,0,1,220.479,223.613Zm0-4.7a1.567,1.567,0,1,0,1.567,1.567A1.571,1.571,0,0,0,220.479,218.912Z" transform="translate(-196.965 -196.965)"/>
      </g>
    </g>
  </g>
</svg>
